<?xml version="1.0" standalone="no"?>
<!DOCTYPE svg PUBLIC "-//W3C//DTD SVG 20010904//EN"
 "http://www.w3.org/TR/2001/REC-SVG-20010904/DTD/svg10.dtd">
<svg version="1.0" xmlns="http://www.w3.org/2000/svg"
 width="700.000000pt" height="700.000000pt" viewBox="0 0 700.000000 700.000000"
 preserveAspectRatio="xMidYMid meet">
<metadata>
Created by potrace 1.14, written by Peter Selinger 2001-2017
</metadata>
<g transform="translate(0.000000,700.000000) scale(0.100000,-0.100000)"
fill="#000000" stroke="none">
<path d="M0 3500 l0 -3500 3500 0 3500 0 0 3500 0 3500 -3500 0 -3500 0 0
-3500z m6235 842 l0 -2002 -50 -1 c-27 0 -176 -1 -330 -1 l-280 -1 -5 29 c-3
16 -5 86 -4 157 0 70 -2 127 -6 127 -3 0 -29 -25 -58 -55 -139 -144 -391 -271
-617 -311 -53 -9 -246 -10 -315 -1 -329 44 -611 212 -774 460 -75 115 -140
289 -165 442 -6 34 -10 290 -9 585 0 515 0 527 24 630 50 222 142 399 279 537
166 166 371 270 619 314 143 25 402 20 501 -10 176 -52 313 -136 437 -266 31
-32 60 -56 64 -52 4 4 7 323 7 709 0 387 2 706 4 711 2 4 156 6 341 5 l337 -3
0 -2003z m-3940 913 c22 -3 63 -11 90 -16 28 -6 64 -13 80 -16 63 -11 194 -57
279 -99 232 -114 372 -283 436 -529 20 -77 21 -106 25 -895 4 -751 9 -1068 20
-1145 2 -16 6 -57 10 -90 3 -33 8 -75 11 -92 4 -23 1 -33 -8 -34 -17 -1 -324
-1 -509 0 l-147 1 -5 33 c-4 17 -9 61 -13 97 -7 70 -11 111 -13 123 -2 15 -18
5 -76 -49 -96 -89 -262 -190 -344 -209 -9 -3 -44 -11 -79 -20 -34 -8 -93 -18
-130 -22 -85 -10 -351 -9 -417 1 -156 23 -303 72 -420 140 -87 51 -230 191
-272 267 -129 230 -154 506 -67 737 115 306 408 520 804 586 48 8 207 13 440
15 201 2 403 4 450 5 l85 1 -2 174 c-3 186 -14 250 -58 327 -75 129 -251 197
-505 196 -204 -1 -362 -50 -445 -136 -48 -50 -65 -101 -65 -193 l0 -59 -307 1
-308 0 1 70 c2 143 23 242 72 345 119 248 380 412 767 481 83 15 141 17 340
14 132 -2 258 -6 280 -10z m-1013 -3326 c102 -27 189 -94 228 -174 11 -23 23
-72 27 -108 l6 -66 -117 0 -116 -1 0 31 c0 41 -23 83 -62 111 -45 32 -163 33
-204 2 -66 -49 -68 -57 -71 -267 -1 -106 3 -206 8 -223 27 -88 157 -130 254
-83 38 18 75 74 75 114 l0 31 116 1 116 1 -5 -63 c-3 -34 -12 -79 -21 -99 -50
-120 -180 -196 -343 -201 -198 -5 -340 64 -411 199 l-27 51 0 250 c0 236 1
253 22 295 49 103 163 189 274 205 24 4 46 9 48 11 8 7 161 -5 203 -17z m903
7 c28 -5 55 -11 60 -14 6 -4 15 -7 21 -8 27 -4 105 -58 139 -96 38 -41 72
-107 82 -156 9 -42 9 -361 1 -425 -23 -174 -175 -292 -391 -301 -192 -9 -340
65 -406 204 -26 55 -26 57 -26 295 l0 240 28 55 c84 168 262 243 492 206z
m2985 -6 c65 -18 116 -46 167 -93 59 -55 83 -104 90 -188 l6 -69 -111 0 -112
0 -5 28 c-19 94 -84 143 -184 138 -63 -3 -100 -22 -134 -70 -20 -29 -22 -41
-22 -235 l-1 -204 27 -37 c82 -112 285 -83 306 45 4 22 6 43 5 46 0 4 51 7
114 7 l115 -1 -2 -61 c-5 -126 -91 -232 -228 -277 -64 -22 -209 -30 -276 -17
-145 30 -254 120 -290 242 -20 67 -18 440 2 511 36 120 152 218 288 242 17 3
31 6 33 8 8 8 172 -4 212 -15z m-2285 -346 c2 -333 2 -342 24 -377 31 -51 98
-81 162 -74 110 13 147 64 147 207 0 52 1 206 1 342 l1 247 58 3 c31 2 85 1
119 0 l62 -4 -3 -351 c-2 -222 -7 -367 -14 -393 -26 -92 -119 -184 -227 -224
-84 -31 -262 -31 -349 -1 -97 34 -148 80 -193 171 l-27 55 -3 372 -3 372 88 3
c48 2 103 1 122 -2 l34 -5 1 -341z m980 344 c1 -2 68 -100 148 -219 218 -322
222 -328 227 -329 3 0 6 122 6 272 0 317 -15 285 134 280 l90 -3 0 -490 0
-489 -32 -1 c-103 -3 -192 1 -198 8 -4 4 -85 125 -180 268 -95 143 -181 269
-191 280 -19 19 -19 14 -19 -268 l0 -287 -42 -1 c-24 0 -73 -1 -110 -2 -52 -2
-68 1 -70 13 -3 13 -2 943 1 962 1 4 11 8 24 10 26 4 208 0 212 -4z m1955
-489 l0 -489 -65 -1 c-82 -1 -118 -1 -152 0 l-28 1 1 478 c1 262 2 482 3 489
1 13 117 21 199 14 l42 -3 0 -489z m415 107 c0 -327 2 -375 15 -378 8 -2 75
-3 148 -2 72 1 132 -1 133 -5 4 -32 3 -195 -2 -202 -4 -8 -378 -15 -516 -10
l-23 1 0 490 0 489 113 3 c61 2 117 0 122 -4 6 -4 10 -142 10 -382z"/>
<path d="M4770 4685 c-222 -44 -367 -165 -436 -365 -18 -51 -19 -90 -19 -540
0 -544 0 -542 75 -659 105 -163 265 -246 495 -257 97 -5 147 -1 260 21 60 12
190 83 240 132 66 64 83 87 111 147 54 122 55 123 52 631 -3 457 -4 472 -25
528 -87 230 -297 364 -583 372 -58 1 -134 -3 -170 -10z"/>
<path d="M2000 3539 c-179 -3 -334 -8 -345 -11 -110 -34 -176 -69 -219 -119
-54 -64 -74 -128 -72 -229 3 -107 30 -172 95 -233 93 -87 195 -118 406 -123
320 -7 512 76 599 260 45 94 54 148 60 339 3 114 3 117 -18 118 -120 3 -228 3
-506 -2z"/>
<path d="M1994 1735 c-45 -19 -76 -60 -84 -108 -3 -23 -6 -119 -5 -212 2 -188
8 -211 64 -253 37 -27 113 -38 169 -23 43 12 89 52 104 91 12 32 11 390 -1
422 -10 26 -74 87 -94 89 -63 7 -129 4 -153 -6z"/>
</g>
</svg>
