<?xml version="1.0" standalone="no"?>
<!DOCTYPE svg PUBLIC "-//W3C//DTD SVG 20010904//EN"
 "http://www.w3.org/TR/2001/REC-SVG-20010904/DTD/svg10.dtd">
<svg version="1.0" xmlns="http://www.w3.org/2000/svg"
 width="1500.000000pt" height="1500.000000pt" viewBox="0 0 1500.000000 1500.000000"
 preserveAspectRatio="xMidYMid meet">

<g transform="translate(0.000000,1500.000000) scale(0.100000,-0.100000)"
fill="#000000" stroke="none">
<path d="M0 7500 l0 -7500 7500 0 7500 0 0 7500 0 7500 -7500 0 -7500 0 0
-7500z m13360 1810 l0 -4300 -715 0 -715 0 0 345 c0 191 -4 345 -9 345 -5 0
-27 -24 -51 -54 -59 -78 -183 -194 -295 -277 -340 -252 -791 -435 -1210 -490
-116 -15 -463 -6 -605 16 -1028 158 -1730 792 -1944 1755 -63 286 -61 244 -61
1400 0 1154 -1 1128 61 1407 176 792 663 1364 1410 1656 286 112 604 173 959
184 360 11 649 -45 942 -182 254 -119 520 -320 674 -511 37 -45 59 -64 76 -64
l23 0 0 1535 0 1535 730 0 730 0 0 -4300z m-8580 1965 c427 -46 785 -140 1075
-279 238 -115 395 -225 555 -392 227 -237 361 -511 432 -879 21 -109 21 -132
28 -1955 5 -1205 11 -1904 18 -2015 25 -367 52 -617 79 -722 l5 -23 -721 0
c-397 0 -721 1 -721 3 0 2 -4 28 -10 58 -5 30 -16 133 -25 229 -24 274 -25
280 -42 280 -8 0 -66 -49 -129 -109 -388 -374 -761 -530 -1359 -571 -714 -48
-1279 72 -1725 367 -153 101 -357 304 -453 448 -201 305 -297 637 -297 1030 0
183 11 283 50 440 191 771 872 1305 1851 1451 100 15 235 18 1067 21 l954 4
-5 377 c-5 403 -8 435 -62 577 -126 336 -447 516 -975 544 -558 31 -996 -97
-1176 -342 -67 -91 -84 -159 -84 -338 l0 -149 -660 0 -660 0 0 148 c0 218 23
377 82 562 185 583 718 995 1518 1174 131 29 356 62 510 76 157 13 709 4 880
-15z m-2124 -7121 c402 -71 643 -326 644 -681 l0 -83 -245 0 -245 0 0 48 c0
122 -67 225 -182 278 -58 27 -72 29 -178 29 -105 0 -120 -3 -177 -29 -76 -35
-142 -102 -169 -171 -18 -46 -19 -80 -19 -460 l0 -410 33 -67 c58 -118 153
-175 310 -185 225 -15 382 112 382 309 l0 48 246 0 247 0 -5 -112 c-16 -342
-231 -570 -613 -649 -114 -24 -328 -25 -446 -4 -288 54 -498 194 -600 400 -74
151 -74 154 -74 665 0 512 0 511 77 667 156 319 572 486 1014 407z m2029 -6
c328 -64 552 -259 637 -553 22 -78 23 -91 23 -500 0 -372 -2 -429 -18 -498
-69 -292 -311 -509 -644 -576 -126 -26 -332 -28 -454 -6 -355 66 -575 253
-652 553 -21 83 -22 105 -21 507 0 475 3 497 83 660 168 338 587 504 1046 413z
m6313 6 c189 -34 337 -107 458 -228 62 -62 90 -99 117 -156 42 -89 67 -201 67
-305 l0 -75 -244 0 -243 0 -5 68 c-12 169 -136 279 -327 290 -200 11 -340 -74
-387 -235 -13 -43 -15 -117 -12 -450 l3 -398 28 -57 c56 -114 162 -176 318
-185 71 -5 100 -2 159 16 62 19 82 31 131 80 63 64 89 125 89 213 l0 48 245 0
245 0 0 -74 c0 -306 -167 -536 -466 -645 -119 -44 -227 -61 -379 -61 -147 0
-263 17 -372 54 -281 96 -455 282 -508 542 -14 69 -16 142 -13 515 4 486 4
485 80 639 70 143 223 280 388 347 191 77 406 96 628 57z m-4816 -741 l3 -728
23 -56 c58 -143 199 -221 372 -205 141 13 233 73 286 188 l29 63 3 733 3 732
255 0 255 0 -3 -752 c-4 -751 -4 -753 -26 -828 -70 -226 -227 -400 -442 -486
-147 -60 -199 -68 -425 -68 -194 0 -217 2 -306 26 -252 68 -417 207 -496 417
-52 138 -53 156 -53 952 l0 739 260 0 259 0 3 -727z m2499 127 c222 -330 407
-600 411 -600 4 0 8 270 8 600 l0 600 240 0 240 0 0 -1055 0 -1055 -240 0
-240 0 -417 625 c-229 344 -420 625 -425 625 -4 0 -8 -281 -8 -625 l0 -625
-240 0 -240 0 0 1055 0 1055 254 0 253 0 404 -600z m3789 -455 l0 -1055 -260
0 -260 0 0 1055 0 1055 260 0 260 0 0 -1055z m890 235 l0 -820 320 0 320 0 0
-235 0 -235 -580 0 -580 0 0 1055 0 1055 260 0 260 0 0 -820z"/>
<path d="M10340 10059 c-540 -62 -922 -356 -1054 -810 -50 -175 -51 -189 -51
-1169 0 -730 3 -930 14 -990 79 -435 362 -747 805 -889 166 -53 305 -73 516
-73 216 0 358 20 528 77 429 144 698 447 780 880 15 81 17 184 17 1010 0 997
1 984 -56 1157 -76 234 -238 444 -451 582 -280 182 -677 267 -1048 225z"/>
<path d="M3675 7579 c-136 -18 -277 -58 -385 -111 -89 -43 -117 -63 -186 -132
-90 -90 -138 -175 -170 -301 -24 -95 -24 -303 0 -400 95 -388 478 -595 1103
-595 743 0 1168 233 1308 717 46 158 57 250 62 551 l6 282 -834 -1 c-459 -1
-865 -6 -904 -10z"/>
<path d="M4324 3739 c-104 -25 -200 -113 -229 -211 -22 -76 -22 -800 0 -876
28 -94 120 -184 218 -214 23 -7 89 -13 147 -13 97 0 110 3 171 31 108 52 168
129 190 247 6 36 9 193 7 420 -4 414 -5 419 -89 511 -72 79 -145 109 -274 112
-55 2 -118 -1 -141 -7z"/>
</g>
</svg>
